<svg id="Layer_1" data-name="Layer 1" xmlns="http://www.w3.org/2000/svg" viewBox="0 0 575 90"><defs><style>.cls-1{fill:#fff;}</style></defs><title>Crowdin</title><polygon class="cls-1" points="514.24 17.73 499.36 20.64 495.51 29.14 510.32 26.31 514.24 17.73"/><path class="cls-1" d="M478.3,21.2l-5.37,12.46h-34.7a25,25,0,0,0-10.09,1.7c-4.4,1.84-7.52,4.09-9.36,7.28L408,66.65c-.29,3.73,2.74,5.92,9.08,5.92h51.68l24.47-54.1ZM458.05,67H426.33c-3.22,0-4.41-2.25-4.07-4l8.28-18.55a8.69,8.69,0,0,1,3.88-3.87,10.63,10.63,0,0,1,5.63-1.33h30.27Z"/><path class="cls-1" d="M570.86,34.78c-2.22-1.11-4.74-1.12-7.55-1.12H514.82L497,72.57h13.51l15.17-33.35h30.56c3.24,0,4.86.69,4.86,3.06a6,6,0,0,1-.5,2.39L548,72.57h13.29l13.28-29.75a5.5,5.5,0,0,0,.44-2.35C575,38.05,573.62,36.18,570.86,34.78Z"/><polygon class="cls-1" points="493.17 34.64 476.13 72.56 489.69 72.56 508.03 32.02 493.17 34.64"/><path class="cls-1" d="M235.91,48.48h13.14l2.54-5.85A8,8,0,0,0,252,40.1c0-2.42-1.38-3.85-4.14-5.25-2.23-1.12-4.72-1.19-7.48-1.19H203.68L185.82,72.57h13.36l15.17-33.35h19c3.29,0,4.94.69,4.94,3.06a5.12,5.12,0,0,1-.51,2.19Z"/><path class="cls-1" d="M402.66,33.11,387.49,67H365.42l15.17-34-13.5.35L351.92,67h-15.1c-3.24,0-4.87-1.74-4.87-4.12a6.38,6.38,0,0,1,.51-2.46l12.63-27.81H331.81L318.52,61.8a7.14,7.14,0,0,0-.43,2.38,7,7,0,0,0,4.21,6.26,17.06,17.06,0,0,0,7.48,2.13h68.6l17.78-39.35Z"/><path class="cls-1" d="M132.47,62.86a4.66,4.66,0,0,1,.58-1.94L143,39.22h30.93c3.19,0,4.79.66,4.79,3a5.88,5.88,0,0,1-.58,2.26l-1.82,4h13.07l2.54-5.85a8.7,8.7,0,0,0,.44-2.6c0-2.43-1.33-3.83-4-5.18-2.17-1.12-4.62-1.19-7.33-1.19H132.54L119.33,62.17a5.8,5.8,0,0,0-.44,2.13A7,7,0,0,0,123,70.5a15.54,15.54,0,0,0,7.33,2.07h48.27L181.18,67H137.33C134.09,67,132.47,65.28,132.47,62.86Z"/><path class="cls-1" d="M320.85,39.9c0-2.43-1.36-3.75-4.07-5.16-2.18-1.11-4.6-1.08-7.26-1.08H261L247.82,62.21a4.4,4.4,0,0,0-.44,2.1c0,2.43,1.36,4.67,4.07,6.13a15.36,15.36,0,0,0,7.33,2.13h48.35l13.28-29.75A10.73,10.73,0,0,0,320.85,39.9Zm-14.38,4.61-10,22.5H265.82c-3.19,0-4.79-1.74-4.79-4.11a4.21,4.21,0,0,1,.51-2l10-21.72h30.92c3,0,4.57.91,4.57,3.19A4.88,4.88,0,0,1,306.47,44.51Z"/><path class="cls-1" d="M116,30.52a.5.5,0,0,0,.07-1,92,92,0,0,0-16.62-1.4c-15,0-32.93,3.22-35.32,15.59-.09.46-.27,2.81-.32,3.26,1.37.23,2.37.39,3.15.5a16.26,16.26,0,0,0-.15,1.88c0,1.14,0,2.21.06,3.23-1-.13-2-.26-3-.41C65.13,65,72.16,68.65,79.53,68.81h.52a38.77,38.77,0,0,0,12.82-2.6.5.5,0,0,0-.23-1c-6.79.92-17.34-.24-15-17.26C79.6,33.91,106.49,31.08,116,30.52ZM65.79,45.45c0-.58.11-1.2.14-1.37,1.92-9.92,18.46-13.79,27.3-13.79-8.39,2-17.21,5.78-19.09,13-.18.68-.47,1.91-.71,3C71.81,46.08,71,46,70.24,46A35,35,0,0,1,65.79,45.45ZM80.05,67c-8,0-12.57-4.13-14-12.62,2.33.31,4.72.57,7.13.66,1,7,4.3,10.36,7.79,11.95Z"/><path class="cls-1" d="M36.53,40.47c-.13.71-.41,4.26-.48,4.94,2.07.3,3.51.5,4.73.64-.1.81-.17,1.63-.19,2.47,0,1.91,0,3.7.12,5.38-1.47-.19-3-.4-4.49-.63,1.87,19.88,13,25.23,24.39,25.23a41.79,41.79,0,0,0,5.59-.4A60.28,60.28,0,0,0,83,73.42a.49.49,0,0,0-.29-.94C73.08,74.37,53.05,75,57,46.44c3.08-22.3,47.52-25.6,59.89-26.08a.5.5,0,0,0,.09-1c-5.61-1.31-15.74-2.52-27-2.52C67.32,16.86,40.15,21.75,36.53,40.47ZM60.61,76.66c-12.81,0-20.3-7.14-22.28-21.22a115.3,115.3,0,0,0,12.73,1.2c1.61,13.23,8.5,18.13,15.49,19.56A42.2,42.2,0,0,1,60.61,76.66ZM52.61,40c-.33,1.24-.87,3.56-1.25,5.33-3.08-.34-5-.53-6.59-.69-2.29-.22-3.7-.36-6.74-.78.1-1.15.24-2.68.3-3C42.19,20.86,75.75,18.7,90,18.7c1.09,0,2.17,0,3.23,0C75.86,20.37,56.39,25.5,52.61,40Z"/><path class="cls-1" d="M3.92,29.82v0Z"/><path class="cls-1" d="M3.87,30l0,.09,0,.08c0-.13,0-.25.08-.35C3.9,29.92,3.88,30,3.87,30Z"/><path class="cls-1" d="M3.25,33.32c.07-.41.15-.84.22-1.25C3.4,32.48,3.32,32.91,3.25,33.32Z"/><path class="cls-1" d="M3.53,31.76c.08-.4.15-.77.21-1.1C3.68,31,3.61,31.36,3.53,31.76Z"/><path class="cls-1" d="M124.11,9.21C113.88,5.28,88.8,0,63.92,0,36.12,0,8.55,6.59,2.22,29,1.93,30,1,35.36.83,36.39c3,.77,5.15,1.3,6.83,1.7-.2,1-.38,2.09-.5,3.18-.33,3.06-.51,5.92-.58,8.62-2.15-.5-4.34-1-6.58-1.62C0,81.82,19.11,90,37.75,90a71.74,71.74,0,0,0,7.94-.46,109.21,109.21,0,0,0,21.6-5,.5.5,0,0,0-.22-1c-13.43,1.66-45.81,1.31-35.68-43.16,7.82-34.36,77.27-31.37,92.5-30.29A.5.5,0,0,0,124.11,9.21ZM3.47,32.07c-.07.41-.15.84-.22,1.25C3.32,32.91,3.4,32.48,3.47,32.07Zm.27-1.41c-.06.33-.13.7-.21,1.1C3.61,31.36,3.68,31,3.74,30.66ZM30.66,79.78c4.18,4.23,9.77,6.81,16.66,7.71a73.58,73.58,0,0,1-9.57.67c-23.11,0-35.17-12.62-35.88-37.52a164.6,164.6,0,0,0,20.16,4C22.19,65.69,25.09,74.15,30.66,79.78ZM87.76,5.22c-34.14,0-55.31,8.88-61.23,25.67-.67,1.89-2,5.92-2.78,8.61-1.87-.4-3.39-.72-4.68-1-2-.41-3.47-.69-4.74-.93A90.82,90.82,0,0,1,3,35s0-.17,0-.26c.23-1.35.59-3.38.82-4.5l0-.13,0-.09.06-.27c0-.07,0-.13,0-.18s0,0,0-.05C10.45,6.67,40.14,1.9,63.92,1.9h0a215.88,215.88,0,0,1,40,4C98.94,5.49,93.46,5.22,87.76,5.22Z"/><path class="cls-1" d="M4,29.54l0,.05c0,.05,0,.11,0,.18v.05A2.26,2.26,0,0,1,4,29.54Z"/></svg>