<svg xmlns="http://www.w3.org/2000/svg" height="291.76" viewBox="0 0 1097.65 291.76">
  <style>
    .st0{fill:#fff}
  </style>
  <path class="st0" d="M377.51 72.34H389v15.34c3.98-5.66 8.06-9.8 12.26-12.4 5.76-3.39 11.82-5.09 18.2-5.09 4.28 0 8.39.87 12.24 2.54 3.87 1.69 7.04 3.93 9.47 6.74 2.44 2.8 4.57 6.8 6.36 12.02 3.8-6.96 8.53-12.25 14.21-15.87 5.67-3.6 11.77-5.43 18.31-5.43 6.11 0 11.5 1.57 16.16 4.65 4.68 3.1 8.15 7.43 10.45 12.98 2.24 5.54 3.39 13.88 3.39 24.93v48.45h-11.5v-48.45c0-9.51-.69-16.03-2.02-19.6-1.37-3.56-3.69-6.45-6.93-8.59-3.29-2.18-7.2-3.28-11.74-3.28-5.52 0-10.57 1.64-15.13 4.9-4.59 3.25-7.93 7.61-10.03 13.04-2.11 5.43-3.15 14.52-3.15 27.25v34.73h-11.53v-45.42c0-10.71-.66-17.97-1.99-21.81-1.33-3.83-3.66-6.9-6.95-9.21-3.31-2.33-7.26-3.48-11.8-3.48-5.29 0-10.2 1.59-14.8 4.77-4.58 3.19-7.98 7.47-10.17 12.85-2.2 5.39-3.31 13.63-3.31 24.72v37.58h-11.49V72.34zM622.81 72.34v88.86h-11.52v-15.26c-4.76 5.83-10.13 10.19-16.08 13.07-5.94 2.88-12.42 4.32-19.47 4.32-12.52 0-23.23-4.53-32.11-13.63-8.88-9.1-13.32-20.15-13.32-33.16 0-12.78 4.48-23.68 13.43-32.73 8.95-9.07 19.72-13.61 32.32-13.61 7.28 0 13.86 1.54 19.74 4.58 5.88 3.05 11.05 7.69 15.49 13.87V72.34h11.52zm-45.78 8.95c-6.32 0-12.16 1.56-17.51 4.68-5.33 3.1-9.59 7.48-12.74 13.12-3.15 5.64-4.74 11.6-4.74 17.87 0 6.25 1.59 12.2 4.79 17.89 3.17 5.7 7.45 10.14 12.82 13.3 5.37 3.17 11.15 4.76 17.31 4.76 6.21 0 12.09-1.56 17.63-4.72 5.58-3.15 9.85-7.39 12.86-12.75 3-5.38 4.5-11.4 4.5-18.13 0-10.25-3.37-18.79-10.1-25.68-6.72-6.91-15-10.34-24.82-10.34zM736.89 38.24V161.2h-11.51v-15.26c-4.76 5.83-10.1 10.19-16.05 13.07-5.9 2.88-12.39 4.32-19.42 4.32-12.5 0-23.19-4.53-32.04-13.63-8.85-9.1-13.26-20.15-13.26-33.16 0-12.78 4.46-23.68 13.38-32.73 8.93-9.07 19.69-13.61 32.25-13.61 7.24 0 13.79 1.57 19.68 4.68 5.87 3.09 10.98 7.74 15.45 13.94V38.24h11.52zm-45.67 43.05c-6.3 0-12.11 1.56-17.44 4.68-5.34 3.1-9.57 7.48-12.71 13.12-3.16 5.64-4.74 11.6-4.74 17.87 0 6.25 1.59 12.2 4.77 17.89 3.18 5.7 7.44 10.14 12.79 13.3 5.36 3.17 11.11 4.76 17.24 4.76 6.2 0 12.07-1.56 17.6-4.72 5.56-3.15 9.81-7.39 12.81-12.75 2.98-5.38 4.47-11.4 4.47-18.13 0-10.25-3.36-18.79-10.05-25.68-6.68-6.91-14.95-10.34-24.74-10.34zM848.94 90.59l-9.03 5.62c-7.88-10.36-18.53-15.55-32.1-15.55-10.84 0-19.81 3.49-26.99 10.46-7.15 6.98-10.73 15.45-10.73 25.42 0 6.48 1.67 12.59 4.95 18.3 3.3 5.72 7.8 10.16 13.56 13.32 5.73 3.16 12.16 4.75 19.32 4.75 13.06 0 23.72-5.19 32-15.55l9.03 5.95c-4.24 6.35-9.95 11.28-17.13 14.8-7.18 3.47-15.36 5.23-24.51 5.23-14.06 0-25.75-4.43-35.02-13.35-9.28-8.9-13.92-19.72-13.92-32.47 0-8.57 2.19-16.54 6.5-23.9 4.35-7.35 10.3-13.09 17.87-17.23 7.59-4.11 16.08-6.19 25.45-6.19 5.89 0 11.59.9 17.06 2.68 5.48 1.75 10.14 4.06 13.95 6.88 3.85 2.82 7.07 6.43 9.74 10.83zM959.33 72.34v88.86h-11.47v-15.26c-4.78 5.83-10.14 10.19-16.08 13.07-5.95 2.88-12.45 4.32-19.48 4.32-12.54 0-23.25-4.53-32.13-13.63-8.88-9.1-13.32-20.15-13.32-33.16 0-12.78 4.49-23.68 13.46-32.73 8.95-9.07 19.72-13.61 32.32-13.61 7.27 0 13.84 1.54 19.74 4.58 5.87 3.05 11.04 7.69 15.51 13.87V72.34h11.45zm-45.76 8.95c-6.31 0-12.14 1.56-17.49 4.68-5.36 3.1-9.6 7.48-12.76 13.12-3.16 5.64-4.75 11.6-4.75 17.87 0 6.25 1.62 12.2 4.8 17.89 3.15 5.7 7.45 10.14 12.84 13.3 5.35 3.17 11.13 4.76 17.28 4.76 6.2 0 12.1-1.56 17.64-4.72 5.57-3.15 9.88-7.39 12.86-12.75 3-5.38 4.48-11.4 4.48-18.13 0-10.25-3.35-18.79-10.07-25.68-6.75-6.91-14.99-10.34-24.83-10.34zM984.99 72.34h11.51v16.31c4.5-6.19 9.69-10.82 15.55-13.87 5.88-3.05 12.41-4.58 19.63-4.58 12.61 0 23.4 4.55 32.36 13.61 8.97 9.06 13.46 19.96 13.46 32.73 0 13.01-4.47 24.06-13.34 33.16-8.88 9.1-19.58 13.63-32.15 13.63-7.04 0-13.55-1.46-19.46-4.41-5.94-2.94-11.26-7.31-16.05-13.13v47.81h-11.51V72.34zm45.78 8.95c-9.81 0-18.1 3.43-24.83 10.33-6.7 6.89-10.07 15.43-10.07 25.68 0 6.73 1.49 12.76 4.48 18.13 2.99 5.36 7.29 9.61 12.87 12.75 5.6 3.16 11.49 4.72 17.71 4.72 6.09 0 11.85-1.59 17.19-4.76 5.41-3.17 9.68-7.6 12.87-13.3 3.17-5.68 4.78-11.64 4.78-17.89 0-6.27-1.61-12.23-4.74-17.87-3.15-5.64-7.4-10.01-12.78-13.12-5.35-3.11-11.17-4.67-17.48-4.67zM380.87 237.95c5.27 6.62 13.09 11.35 24.45 11.35 8.86 0 16.9-2.77 16.9-9.2 0-15.25-44.84-2.23-44.84-24.5 0-12.27 12.6-16.41 23.95-16.41 18.12 0 24.73 7.74 27.5 11.66l-5.69 5.15c-4.43-5.69-11.33-9.69-21.95-9.69-9.9 0-15.47 3.09-15.47 8.73 0 13.95 44.86 1.36 44.86 24.47 0 12.36-12.17 16.88-25.99 16.88-11.95 0-21.87-3.38-29.88-12.75l6.16-5.69zM438.21 226.82c0-15.34 12.17-27.62 31.14-27.62 18.95 0 31.04 12.28 31.04 27.62 0 19.1-12.7 29.58-31.04 29.58-18.37 0-31.14-10.48-31.14-29.58zm53.81 1.04c0-9.81-6.37-21.54-22.66-21.54-16.27 0-22.79 11.73-22.79 21.54 0 12.89 8.67 21.44 22.79 21.44 14.1 0 22.66-8.54 22.66-21.44zM519.65 209.09h-13.6V202h13.6v-4.14c0-8.85 2.79-19.9 19.19-19.9 8.54 0 11.83.95 13.99 1.47v7.39c-3.67-.92-7.31-1.72-11.55-1.72-11.52 0-13.26 5.44-13.26 13.38V202h22.16v7.09h-22.16v45.69h-8.37v-45.69zM599.89 207.98h-21.43v32.58c0 5.86 2.57 8.75 11.02 8.75 4.03 0 7.31-.71 11.84-1.64v7.22c-5.97.94-10.2 1.52-13.59 1.52-17.66 0-17.66-10.71-17.66-15.04v-33.38h-11.42v-7.12h11.42v-17.94h8.39v17.94h21.43v7.11zM607.15 200.86h8.54l17.94 43.9 16.7-43.9h7.86l16.65 44.02 17.74-44.02h8.78l-22.77 53.93h-7.93l-16.43-43.74-16.45 43.74h-7.96l-22.67-53.93zM763.52 246.42c0 3.19.4 5.47.93 8.37h-8.34c-.39-1.65-1.02-4.32-1.02-6.52-7.86 5.08-16.61 8.14-26.94 8.14-8.85 0-21.96-2.47-21.96-16.35 0-18.68 27.94-19.39 48.96-21.86v-2.07c0-7.32-8.72-10.11-17.28-10.11-14.33 0-19.41 6-22.08 9.05l-6.28-4.31c3.1-3.8 8.96-11.54 27.75-11.54 12.25 0 26.27 3.6 26.27 17.41v29.79zm-8.38-21.43c-24.54 2.35-41.01 4.62-41.01 15.06 0 8.44 9.48 9.56 13.61 9.56 11.67 0 22.08-5.55 27.4-8.43v-16.19zM779.41 200.86h8.33v11.23c4.84-5.45 11.66-12.88 22.46-12.88 1.87 0 3.42.1 4.97.41v8.36c-1.04-.12-3.1-.76-6.7-.76-11.85 0-20.42 13.72-20.72 15.26v32.3h-8.33v-53.92zM880.54 243.55c-5.61 5.87-10.97 12.85-29.3 12.85-18.13 0-30.51-12.35-30.51-28.84 0-17.09 12.89-28.36 29.51-28.36 17.19 0 32.23 8.98 31.83 30.31h-52.99c.83 10.1 8.97 19.78 22.99 19.78 13.91 0 18.56-6.28 21.96-10.51l6.51 4.77zm-7.53-21.15c-1.69-8.87-9.28-16.08-22.09-16.08-12.24 0-19.15 6.19-21.53 16.08h43.62z"/>
  <path class="st0" d="M377.51 72.34H389v15.34c3.98-5.66 8.06-9.8 12.26-12.4 5.76-3.39 11.82-5.09 18.2-5.09 4.28 0 8.39.87 12.24 2.54 3.87 1.69 7.04 3.93 9.47 6.74 2.44 2.8 4.57 6.8 6.36 12.02 3.8-6.96 8.53-12.25 14.21-15.87 5.67-3.6 11.77-5.43 18.31-5.43 6.11 0 11.5 1.57 16.16 4.65 4.68 3.1 8.15 7.43 10.45 12.98 2.24 5.54 3.39 13.88 3.39 24.93v48.45h-11.5v-48.45c0-9.51-.69-16.03-2.02-19.6-1.37-3.56-3.69-6.45-6.93-8.59-3.29-2.18-7.2-3.28-11.74-3.28-5.52 0-10.57 1.64-15.13 4.9-4.59 3.25-7.93 7.61-10.03 13.04-2.11 5.43-3.15 14.52-3.15 27.25v34.73h-11.53v-45.42c0-10.71-.66-17.97-1.99-21.81-1.33-3.83-3.66-6.9-6.95-9.21-3.31-2.33-7.26-3.48-11.8-3.48-5.29 0-10.2 1.59-14.8 4.77-4.58 3.19-7.98 7.47-10.17 12.85-2.2 5.39-3.31 13.63-3.31 24.72v37.58h-11.49V72.34zM622.81 72.34v88.86h-11.52v-15.26c-4.76 5.83-10.13 10.19-16.08 13.07-5.94 2.88-12.42 4.32-19.47 4.32-12.52 0-23.23-4.53-32.11-13.63-8.88-9.1-13.32-20.15-13.32-33.16 0-12.78 4.48-23.68 13.43-32.73 8.95-9.07 19.72-13.61 32.32-13.61 7.28 0 13.86 1.54 19.74 4.58 5.88 3.05 11.05 7.69 15.49 13.87V72.34h11.52zm-45.78 8.95c-6.32 0-12.16 1.56-17.51 4.68-5.33 3.1-9.59 7.48-12.74 13.12-3.15 5.64-4.74 11.6-4.74 17.87 0 6.25 1.59 12.2 4.79 17.89 3.17 5.7 7.45 10.14 12.82 13.3 5.37 3.17 11.15 4.76 17.31 4.76 6.21 0 12.09-1.56 17.63-4.72 5.58-3.15 9.85-7.39 12.86-12.75 3-5.38 4.5-11.4 4.5-18.13 0-10.25-3.37-18.79-10.1-25.68-6.72-6.91-15-10.34-24.82-10.34zM736.89 38.24V161.2h-11.51v-15.26c-4.76 5.83-10.1 10.19-16.05 13.07-5.9 2.88-12.39 4.32-19.42 4.32-12.5 0-23.19-4.53-32.04-13.63-8.85-9.1-13.26-20.15-13.26-33.16 0-12.78 4.46-23.68 13.38-32.73 8.93-9.07 19.69-13.61 32.25-13.61 7.24 0 13.79 1.57 19.68 4.68 5.87 3.09 10.98 7.74 15.45 13.94V38.24h11.52zm-45.67 43.05c-6.3 0-12.11 1.56-17.44 4.68-5.34 3.1-9.57 7.48-12.71 13.12-3.16 5.64-4.74 11.6-4.74 17.87 0 6.25 1.59 12.2 4.77 17.89 3.18 5.7 7.44 10.14 12.79 13.3 5.36 3.17 11.11 4.76 17.24 4.76 6.2 0 12.07-1.56 17.6-4.72 5.56-3.15 9.81-7.39 12.81-12.75 2.98-5.38 4.47-11.4 4.47-18.13 0-10.25-3.36-18.79-10.05-25.68-6.68-6.91-14.95-10.34-24.74-10.34zM848.94 90.59l-9.03 5.62c-7.88-10.36-18.53-15.55-32.1-15.55-10.84 0-19.81 3.49-26.99 10.46-7.15 6.98-10.73 15.45-10.73 25.42 0 6.48 1.67 12.59 4.95 18.3 3.3 5.72 7.8 10.16 13.56 13.32 5.73 3.16 12.16 4.75 19.32 4.75 13.06 0 23.72-5.19 32-15.55l9.03 5.95c-4.24 6.35-9.95 11.28-17.13 14.8-7.18 3.47-15.36 5.23-24.51 5.23-14.06 0-25.75-4.43-35.02-13.35-9.28-8.9-13.92-19.72-13.92-32.47 0-8.57 2.19-16.54 6.5-23.9 4.35-7.35 10.3-13.09 17.87-17.23 7.59-4.11 16.08-6.19 25.45-6.19 5.89 0 11.59.9 17.06 2.68 5.48 1.75 10.14 4.06 13.95 6.88 3.85 2.82 7.07 6.43 9.74 10.83zM959.33 72.34v88.86h-11.47v-15.26c-4.78 5.83-10.14 10.19-16.08 13.07-5.95 2.88-12.45 4.32-19.48 4.32-12.54 0-23.25-4.53-32.13-13.63-8.88-9.1-13.32-20.15-13.32-33.16 0-12.78 4.49-23.68 13.46-32.73 8.95-9.07 19.72-13.61 32.32-13.61 7.27 0 13.84 1.54 19.74 4.58 5.87 3.05 11.04 7.69 15.51 13.87V72.34h11.45zm-45.76 8.95c-6.31 0-12.14 1.56-17.49 4.68-5.36 3.1-9.6 7.48-12.76 13.12-3.16 5.64-4.75 11.6-4.75 17.87 0 6.25 1.62 12.2 4.8 17.89 3.15 5.7 7.45 10.14 12.84 13.3 5.35 3.17 11.13 4.76 17.28 4.76 6.2 0 12.1-1.56 17.64-4.72 5.57-3.15 9.88-7.39 12.86-12.75 3-5.38 4.48-11.4 4.48-18.13 0-10.25-3.35-18.79-10.07-25.68-6.75-6.91-14.99-10.34-24.83-10.34zM984.99 72.34h11.51v16.31c4.5-6.19 9.69-10.82 15.55-13.87 5.88-3.05 12.41-4.58 19.63-4.58 12.61 0 23.4 4.55 32.36 13.61 8.97 9.06 13.46 19.96 13.46 32.73 0 13.01-4.47 24.06-13.34 33.16-8.88 9.1-19.58 13.63-32.15 13.63-7.04 0-13.55-1.46-19.46-4.41-5.94-2.94-11.26-7.31-16.05-13.13v47.81h-11.51V72.34zm45.78 8.95c-9.81 0-18.1 3.43-24.83 10.33-6.7 6.89-10.07 15.43-10.07 25.68 0 6.73 1.49 12.76 4.48 18.13 2.99 5.36 7.29 9.61 12.87 12.75 5.6 3.16 11.49 4.72 17.71 4.72 6.09 0 11.85-1.59 17.19-4.76 5.41-3.17 9.68-7.6 12.87-13.3 3.17-5.68 4.78-11.64 4.78-17.89 0-6.27-1.61-12.23-4.74-17.87-3.15-5.64-7.4-10.01-12.78-13.12-5.35-3.11-11.17-4.67-17.48-4.67zM380.87 237.95c5.27 6.62 13.09 11.35 24.45 11.35 8.86 0 16.9-2.77 16.9-9.2 0-15.25-44.84-2.23-44.84-24.5 0-12.27 12.6-16.41 23.95-16.41 18.12 0 24.73 7.74 27.5 11.66l-5.69 5.15c-4.43-5.69-11.33-9.69-21.95-9.69-9.9 0-15.47 3.09-15.47 8.73 0 13.95 44.86 1.36 44.86 24.47 0 12.36-12.17 16.88-25.99 16.88-11.95 0-21.87-3.38-29.88-12.75l6.16-5.69zM438.21 226.82c0-15.34 12.17-27.62 31.14-27.62 18.95 0 31.04 12.28 31.04 27.62 0 19.1-12.7 29.58-31.04 29.58-18.37 0-31.14-10.48-31.14-29.58zm53.81 1.04c0-9.81-6.37-21.54-22.66-21.54-16.27 0-22.79 11.73-22.79 21.54 0 12.89 8.67 21.44 22.79 21.44 14.1 0 22.66-8.54 22.66-21.44zM519.65 209.09h-13.6V202h13.6v-4.14c0-8.85 2.79-19.9 19.19-19.9 8.54 0 11.83.95 13.99 1.47v7.39c-3.67-.92-7.31-1.72-11.55-1.72-11.52 0-13.26 5.44-13.26 13.38V202h22.16v7.09h-22.16v45.69h-8.37v-45.69zM599.89 207.98h-21.43v32.58c0 5.86 2.57 8.75 11.02 8.75 4.03 0 7.31-.71 11.84-1.64v7.22c-5.97.94-10.2 1.52-13.59 1.52-17.66 0-17.66-10.71-17.66-15.04v-33.38h-11.42v-7.12h11.42v-17.94h8.39v17.94h21.43v7.11zM607.15 200.86h8.54l17.94 43.9 16.7-43.9h7.86l16.65 44.02 17.74-44.02h8.78l-22.77 53.93h-7.93l-16.43-43.74-16.45 43.74h-7.96l-22.67-53.93zM763.52 246.42c0 3.19.4 5.47.93 8.37h-8.34c-.39-1.65-1.02-4.32-1.02-6.52-7.86 5.08-16.61 8.14-26.94 8.14-8.85 0-21.96-2.47-21.96-16.35 0-18.68 27.94-19.39 48.96-21.86v-2.07c0-7.32-8.72-10.11-17.28-10.11-14.33 0-19.41 6-22.08 9.05l-6.28-4.31c3.1-3.8 8.96-11.54 27.75-11.54 12.25 0 26.27 3.6 26.27 17.41v29.79zm-8.38-21.43c-24.54 2.35-41.01 4.62-41.01 15.06 0 8.44 9.48 9.56 13.61 9.56 11.67 0 22.08-5.55 27.4-8.43v-16.19zM779.41 200.86h8.33v11.23c4.84-5.45 11.66-12.88 22.46-12.88 1.87 0 3.42.1 4.97.41v8.36c-1.04-.12-3.1-.76-6.7-.76-11.85 0-20.42 13.72-20.72 15.26v32.3h-8.33v-53.92zM880.34 243.55c-5.61 5.87-10.97 12.85-29.3 12.85-18.13 0-30.51-12.35-30.51-28.84 0-17.09 12.89-28.36 29.51-28.36 17.19 0 32.23 8.98 31.83 30.31h-52.99c.83 10.1 8.97 19.78 22.99 19.78 13.91 0 18.56-6.28 21.96-10.51l6.51 4.77zm-7.53-21.15c-1.69-8.87-9.28-16.08-22.09-16.08-12.24 0-19.15 6.19-21.53 16.08h43.62z"/>
  <g>
    <path class="st0" d="M65.99 186.6l-.01.18c1.36 28.78 22.42 53.06 50.06 57.74 29.36 4.97 58.28-10.4 68.73-36.55l.2-.53c.05-.2.21-1.78.21-1.78 0-4.31-3.5-7.82-7.81-7.82-2.88 0-5.52 1.58-6.89 4.11l-.55 1.11c-7.88 18.73-29.4 29.58-51.19 25.88-20.76-3.51-36.01-20.87-37.08-42.17-.01-4.48-3.52-7.99-7.82-7.99-4.34 0-7.85 3.51-7.85 7.82z"/>
    <path class="st0" d="M3.9 168.35c0 32.46 12.54 63.28 35.31 86.75 22.92 23.65 53.23 36.65 85.33 36.65 66.37 0 122.43-56.3 122.43-122.94 0-6.11-4.95-11.07-11.06-11.07-6.1 0-11.06 4.96-11.06 11.07 0 55.42-44.96 100.5-100.21 100.5-26.66 0-51.51-10.47-69.98-29.47-18.34-18.87-28.43-44.06-28.43-70.95 0-6.34-5.2-11.89-11.12-11.89-6.09 0-11.21 5.2-11.21 11.35zM120.75 56.42c-8.4 0-16.22-3.29-22.23-9.14-43.22 8.89-77.68 38.6-92.32 79.69-.67 1.88-1 3.67-1 5.35 0 2.3.63 4.4 1.88 6.29 2.59 3.87 8.14 4.25 8.2 4.25h285.3c5.18-.31 9.33-4.66 9.33-9.91 0-5.37-4.2-9.76-9.56-10l-59.87-.05-.51-1.21c-16.77-39.8-53.47-68.6-95.91-75.4-6.05 6.43-14.47 10.13-23.31 10.13z"/>
    <path class="st0" d="M144.11 23.52c-.1 12.88-10.62 23.24-23.5 23.15-12.89-.12-23.24-10.63-23.15-23.53C97.57 10.26 108.09-.1 120.97 0c12.89.12 23.25 10.64 23.14 23.52zM241.57 23.68c-.05 5.39-19.65 9.58-43.81 9.37-24.16-.2-43.7-4.7-43.67-10.08.03-5.39 19.67-9.56 43.83-9.38 24.16.2 43.7 4.71 43.65 10.09zM0 23.68c.05 5.39 19.65 9.58 43.81 9.37 24.16-.2 43.7-4.7 43.67-10.08-.03-5.39-19.67-9.56-43.83-9.38C19.49 13.79-.05 18.3 0 23.68zM263.44 98.26c0-1.86-1.3-2.27-3.1-2.27h-4.58v7.61h1.49v-2.99h2.36l2.21 2.99h1.83l-2.33-3.1c1.12-.06 2.12-.84 2.12-2.24zm-6.18 1.11v-2.15h2.87c1.21 0 1.83.18 1.83 1.07 0 .9-.62 1.08-1.83 1.08h-2.87z"/>
    <path class="st0" d="M259.29 90.2c-5.29 0-9.6 4.31-9.6 9.6s4.31 9.6 9.6 9.6 9.6-4.31 9.6-9.6c0-5.3-4.31-9.6-9.6-9.6zm0 17.45c-4.33 0-7.85-3.52-7.85-7.85s3.52-7.85 7.85-7.85 7.85 3.52 7.85 7.85c0 4.32-3.52 7.85-7.85 7.85z"/>
  </g>
  <g>
    <path class="st0" d="M1092.21 72.45c0-1.86-1.3-2.27-3.1-2.27h-4.58v7.61h1.49V74.8h2.36l2.21 2.99h1.83l-2.33-3.1c1.11-.06 2.12-.84 2.12-2.24zm-6.19 1.11v-2.15h2.87c1.21 0 1.83.18 1.83 1.07 0 .9-.62 1.08-1.83 1.08h-2.87z"/>
    <path class="st0" d="M1088.06 64.38c-5.29 0-9.6 4.31-9.6 9.6s4.31 9.6 9.6 9.6 9.6-4.31 9.6-9.6c-.01-5.29-4.31-9.6-9.6-9.6zm0 17.45c-4.33 0-7.85-3.52-7.85-7.85s3.52-7.85 7.85-7.85 7.85 3.52 7.85 7.85-3.52 7.85-7.85 7.85z"/>
  </g>
</svg>
