<svg width="157" height="30" xmlns="http://www.w3.org/2000/svg"><g fill="#FFF" fill-rule="evenodd"><path d="M82.248 7.688v20.864c0 .448-.16.832-.544.832-.672 0-1.376-.224-1.376-.448V7.688h-6.496c-.448 0-.768-.128-.768-.512 0-.544.224-1.184.416-1.184h15.264c.384 0 .768.128.768.512 0 .576-.224 1.184-.416 1.184h-6.848zm14.528 5.888c-.832-.16-1.472-.288-2.4-.288-2.24 0-4.096.832-4.096 1.152v14.24c0 .576-.256.704-.608.704-.48 0-1.184-.16-1.184-.384V13.704c0-.8 2.208-2.016 5.824-2.016.928 0 2.944.096 2.944.736 0 .768-.224 1.152-.48 1.152zm13.952 3.008v11.2c0 .64-3.232 1.6-6.016 1.6-3.936 0-5.952-1.408-5.952-5.12 0-3.584 1.6-4.864 5.216-4.864 1.792 0 3.936.448 4.992.832v-3.648c0-2.528-1.056-3.36-4.448-3.36-1.504 0-3.008.192-4.256.448h-.064c-.32 0-.48-.672-.48-1.056 0-.224.096-.352.224-.384.64-.192 2.752-.544 5.056-.544 3.872 0 5.728 1.088 5.728 4.896zm-1.76 10.496v-5.344c-.096-.224-2.976-.928-4.736-.928-2.528 0-3.712.672-3.712 3.552 0 2.688 1.248 3.616 4.224 3.616 1.568 0 4.096-.512 4.224-.896zM126.28 5.8v21.536c0 .736-.032.96-.544 1.184-.992.448-3.808.864-5.632.864-5.088 0-5.568-2.944-5.568-5.728V17.48c0-2.56.576-5.792 5.088-5.792 1.984 0 3.968.64 4.864 1.024V5.384c0-.288.864-.384 1.248-.384s.544.192.544.8zm-1.792 21.376V14.44c-.16-.256-2.272-1.12-4.448-1.12-3.648 0-3.744 2.432-3.744 4.8v4.928c0 2.624.096 4.8 4.032 4.8 1.728 0 4.032-.416 4.16-.672zm5.76-3.104v-7.008c0-3.84 1.92-5.376 6.272-5.376h.064c4.384 0 6.304 1.536 6.304 5.376v7.008c0 3.84-1.92 5.312-6.304 5.312h-.096c-4.352 0-6.24-1.472-6.24-5.312zm6.208 3.744h.16c3.328 0 4.512-1.248 4.512-3.744v-7.008c0-2.56-1.184-3.808-4.512-3.808h-.096c-3.328 0-4.512 1.248-4.512 3.808v7.008c0 2.496 1.152 3.744 4.448 3.744zm10.144-.288c1.472.192 2.816.288 4.384.288 2.688 0 4.192-.704 4.192-2.688 0-4.576-8.64-3.936-8.64-9.536 0-3.2 2.56-3.904 5.44-3.904 1.856 0 3.2.096 4.224.256.416.064.48.224.48.48 0 .768-.224 1.12-.48 1.12-1.12 0-2.464-.288-3.872-.288-2.432 0-4.032.576-4.032 2.368 0 3.968 8.64 3.488 8.64 9.44 0 3.296-2.304 4.32-5.792 4.32-.928 0-5.152-.032-5.152-.704 0-.928.256-1.152.48-1.152h.128zM33.211 20.256c0 3.087-1.724 3.991-4.304 3.991h-3.855c-.03 0-.037-.02-.037-.055V11.477c0-.022.008-.029.034-.029h3.925c2.453 0 4.237 1.17 4.237 3.618v5.19zm-3.77-13.974h-9.433c-.877 0-.882.782-.882.782v21.665c0 .68.598.746 1.33.746h8.374c6.822 0 10.434-2.385 10.434-8.695v-6.073c0-6.853-4.851-8.425-9.822-8.425zm28.74 20.564c-.06 1.353-.353 2.629-.731 2.629H45.033c-1.98 0-2.341-.439-2.341-.81V6.95c0-.671 1.503-.906 3.197-.99 1.738-.089 2.689.064 2.689.884V24.08c0 .173.122.204.203.204h8.531c.81 0 .95.777.87 2.561zm-51.29 3.031c-3.761 0-5.945-.461-6.527-.861-.35-.24-.508-.445-.2-2.53.159-1.066.77-2.48 1.646-2.158.942.348 8.658 1.792 8.658-1.21 0-3.271-9.934-2.13-9.934-10.544 0-3.77 1.647-6.658 8.803-6.658 4.238 0 5.655.733 6.04.895.431.18.616.742.335 2.569-.206 1.334-.936 2.126-1.522 1.945-1.584-.491-7.873-1.246-7.873 1.13 0 3.274 9.93 2.178 9.93 10.75 0 3.915-1.747 6.672-9.355 6.672zM59.924 8.464l.558-.661.557-.66a.48.48 0 0 1 .676-.059l2.643 2.204 2.643 2.204a.475.475 0 0 1 .059.672l-.558.66-.557.661a.48.48 0 0 1-.677.06l-2.642-2.205-2.642-2.204a.474.474 0 0 1-.06-.672"/><path d="M56.734 14.724l.804.323.804.323a.482.482 0 0 0 .625-.264l1.292-3.18 1.292-3.179a.477.477 0 0 0-.265-.621l-.804-.323-.804-.323a.481.481 0 0 0-.625.264l-1.293 3.18-1.292 3.178a.477.477 0 0 0 .265.621"/><path d="M61.323 7.595l-.841.208-.842.209a.481.481 0 0 1-.582-.348l-.834-3.327-.835-3.327a.479.479 0 0 1 .35-.579l.842-.208.841-.209a.481.481 0 0 1 .582.348l.835 3.327.834 3.327a.478.478 0 0 1-.35.579"/><path d="M67.606 4.394l-.46-.73-.467-.746a.481.481 0 0 0-.662-.152l-2.925 1.818L60.166 6.4a.476.476 0 0 0-.152.657l.468.745.46.731a.48.48 0 0 0 .661.152l2.925-1.817 2.925-1.817a.476.476 0 0 0 .153-.658"/><path d="M60.542 6.943l-.06.86-.06.86a.48.48 0 0 1-.513.443l-3.441-.24-3.44-.238a.48.48 0 0 1-.446-.51l.06-.86.06-.86a.48.48 0 0 1 .512-.443l3.442.24 3.44.239a.48.48 0 0 1 .446.509"/></g></svg>