<svg id="Layer_1" data-name="Layer 1" xmlns="http://www.w3.org/2000/svg" viewBox="0 0 2990 568.59"><defs><style>.cls-1{fill:#535f57;}.cls-2{fill:#f26c5d;}</style></defs><title>smartling</title><path class="cls-1" d="M815.51,138.35c33.28,0,66.94,8,91,21.65v56.12c-23.77-16.85-55.33-25.27-86.62-24.86-30.45.4-45.68,8.82-45.68,26.15,0,48.51,153.53,30.47,153.53,130.28,0,62.94-50.51,82.57-109.34,82.57-38.89,0-75-9.2-103.83-25.25V347.59A179.73,179.73,0,0,0,814,377.25c32.47,0,52.51-6.8,52.51-26.86,0-52.51-153.52-32.85-153.52-132.28C712.9,164,760.21,138.35,815.51,138.35Z"/><path class="cls-1" d="M1263.68,143.94V424.55h-60.13V251.8l-74.16,112.64h-34.87l-74.16-113V424.55H960.24V143.94H1016l96.19,145.92L1208,143.94Z"/><path class="cls-1" d="M1289.66,424.55l114.57-280.61h64.93L1583.4,424.53h-62.14l-20.43-52.41H1372.48l-20.85,52.5Zm101.83-102.21h90.59l-39.27-100.61a123.12,123.12,0,0,1-6-22.06,93.72,93.72,0,0,1-6.39,22.06Z"/><path class="cls-1" d="M1609.29,424.55V143.94h115.36c54.52,0,111.45,20.44,111.45,91.39,0,48.11-27.26,72.56-61.35,83.38l83.78,105.82h-69.24l-75.77-98.22h-44.09v98.22Zm60.14-148.31h58.12c25.26,0,47.29-11.23,47.29-39.68,0-28.86-22-39.69-47.29-39.69h-58.12Z"/><path class="cls-1" d="M2091.86,143.94v54.14h-86.19V424.55h-59.73V198.08h-86.19V143.94Z"/><path class="cls-1" d="M2179.54,143.94V370.45h134.58v54.11H2119.43V143.94Z"/><path class="cls-1" d="M2414.07,143.94V424.55h-60.13V143.94Z"/><path class="cls-1" d="M2463.13,424.55V143.94h56.53l130.73,183.18c-.78-11.62-1.19-25.65-1.19-38.48V143.94h60.11V424.55h-56.5L2522.08,241.36c.8,11.63,1.19,25.68,1.19,38.48V424.55Z"/><path class="cls-1" d="M2897,138.35a214,214,0,0,1,86.16,18v57.33c-21.23-14-49.7-21.65-78.15-21.65-50.11,0-99.43,26.45-99.43,92.2,0,74.56,54.93,93.39,96.22,93.39a87,87,0,0,0,30.9-5.21V272.3H2990v139a235.71,235.71,0,0,1-91.39,18.83c-78.56,0-154.34-42.78-154.34-145.9C2744.34,182.44,2820,138.35,2897,138.35Z"/><circle class="cls-2" cx="233.21" cy="336.04" r="28.31"/><path class="cls-2" d="M518,493.34A18.07,18.07,0,0,1,501.9,467.2c73.2-147.64,12.84-326.66-134.8-399.85A298.38,298.38,0,0,0,101,67.88,18.07,18.07,0,0,1,84.8,35.57c165.1-82.81,366.07-16.11,448.88,149a334.43,334.43,0,0,1,.53,298.85A18,18,0,0,1,518,493.34Z"/><path class="cls-2" d="M233.26,438.94A103.31,103.31,0,1,1,336.51,335.58v.05A103.42,103.42,0,0,1,233.26,438.94Zm0-170.51a67.23,67.23,0,1,0,67.22,67.22v0A67.27,67.27,0,0,0,233.26,268.43Z"/><path class="cls-2" d="M233.26,516.52a181,181,0,0,1-54-8.2,18.23,18.23,0,0,1,10.87-34.8,144.23,144.23,0,1,0-94.75-94.7A18.23,18.23,0,1,1,61,391c-.15-.41-.28-.82-.4-1.24A180.9,180.9,0,1,1,233.26,516.52Z"/><path class="cls-2" d="M343.36,568.59A18.23,18.23,0,0,1,335,534.15c109.6-56.22,152.89-190.65,96.66-300.26S241,81,131.42,137.22a223,223,0,0,0-96.94,97.2A18.24,18.24,0,1,1,2,217.78C67.13,90.1,223.42,39.39,351.1,104.51S529.49,325.92,464.38,453.6a259.6,259.6,0,0,1-112.7,113A18.49,18.49,0,0,1,343.36,568.59Z"/></svg>